<svg width="37" height="37" viewBox="0 0 37 37" fill="none" xmlns="http://www.w3.org/2000/svg">
<path d="M18.5 0C8.27879 0 0 8.27879 0 18.5C0 28.7212 8.27879 37 18.5 37C28.7212 37 37 28.7212 37 18.5C37 8.27879 28.7134 0 18.5 0ZM27.797 13.7223L17.2233 25.369C16.9335 25.6823 16.5341 25.8702 16.1033 25.8781C16.0955 25.8781 16.0798 25.8781 16.072 25.8781C15.6569 25.8781 15.2574 25.7136 14.9676 25.416L9.23433 19.5887C8.63124 18.9778 8.63908 17.9987 9.25 17.3956C9.86092 16.7925 10.8478 16.8004 11.4431 17.4113L16.025 22.0637L25.4943 11.631C26.0739 10.9966 27.0529 10.9496 27.6873 11.5292C28.3296 12.101 28.3766 13.08 27.797 13.7223Z" fill="#C31D1F"/>
</svg>
