<svg width="37" height="32" fill="none" xmlns="http://www.w3.org/2000/svg"><path d="M36.978 10.551c0-.108-.064-2.66-1.403-5.21C34.323 2.897 31.668 0 26.206 0h-.043c-.647 0-3.885.151-7.685 3.027C14.701.151 11.463 0 10.815 0h-.043c-5.44 0-8.095 2.897-9.369 5.34C.065 7.915 0 10.444 0 10.552v.065c.151 7.308 5.44 11.892 5.958 12.325 4.598 4.194 11.57 8.475 11.873 8.648l.669.41.67-.41c.301-.174 7.252-4.455 11.872-8.65.518-.432 5.807-5.016 5.958-12.324v-.021l-.022-.044zm-7.598 10.4l-.065.044C25.71 24.28 20.356 27.762 18.5 28.95c-1.878-1.189-7.21-4.67-10.815-7.956l-.043-.044c-.065-.043-4.9-4.086-5.052-10.356.022-.584.454-8 8.182-8h.043c.13 0 3.26.043 6.843 3.091l.842.714.842-.714c3.583-3.048 6.713-3.091 6.821-3.091h.043c7.75 0 8.16 7.437 8.182 8-.13 6.27-4.965 10.313-5.008 10.356z" fill="#fff"/><path d="M10.232 3.805c-.15 0-3.54-.13-4.878 2.811a.657.657 0 00.323.865.574.574 0 00.26.065.657.657 0 00.582-.39c.972-2.14 3.519-2.053 3.627-2.053.345.021.647-.26.67-.627.042-.346-.238-.649-.584-.67z" fill="#fff"/></svg>