<svg width="162" height="67" fill="none" xmlns="http://www.w3.org/2000/svg"><path fill-rule="evenodd" clip-rule="evenodd" d="M0 0h66.7v47.4C64.4 49.6 50 57.5 50 51c0-1.2.7-3.8 2.2-7.6l3-7.9 5.4-.2c.7 0 1.2-.6 1.4-1.6-.2 0-.5-.1-1-.1-.6 0-1.4 0-2.5.1s-2 .1-2.5.1l-.4-.1C59.9 22.6 62 16.1 62 14.1s-.7-2.9-2.2-2.9c-2.7 0-5.6 3.1-8.8 9.4l-6.5 12.8c-3.5-.3-7.5-.4-12-.4-7.9 0-14.2 1.9-18.9 5.7-2.9 2.4-4.4 5-4.4 7.8 0 2.9 1.2 5.1 3.6 6.6 2 1.2 4.5 1.7 7.7 1.7 7 0 13.2-3.2 18.5-9.6 1-1.3 2.2-3 3.4-5.1l3-5.3 5.3.2-2.7 7.6c-1.2 3.5-1.9 5.9-1.9 7.3 0 2.8 2.2 4.2 6.5 4.2 3.7 0 9.9-3 14-6.2v18.2H0V0zm59.2 12.5c0-.3-.1-.5-.3-.5-.2 0-.5.2-.8.5-1.9 1.4-4.1 4.7-6.7 9.8-.8 1.7-2.7 5.5-5.5 11.3l5.3.2 8-21.3zm-28 21c-4.4 0-8.3 1.1-11.8 3.2-4.1 2.5-6.1 5.8-6.1 9.9 0 2.5.8 4.4 2.3 5.7 1.5 1.3 3.5 2 6.1 2 8.7 0 16.2-6.6 22.3-19.7-7.3-.8-11.6-1.1-12.8-1.1zm58.9 15.7l1.9.7c-.3.5-.7.9-1.2 1.4-2.1 2.1-4.7 3.2-7.7 3.2s-5.5-1.1-7.7-3.2c-2.1-2.1-3.2-4.7-3.2-7.7s1.1-5.5 3.2-7.7c2.1-2.1 4.7-3.2 7.7-3.2s5.6 1.1 7.7 3.2c.4.4.8.9 1.2 1.3l-1.9.8c-.2-.2-.4-.5-.6-.7-1.7-1.7-3.9-2.6-6.3-2.6-2.5 0-4.6.9-6.3 2.6-1.7 1.7-2.6 3.8-2.6 6.3s.9 4.6 2.6 6.3c1.7 1.7 3.8 2.6 6.3 2.6s4.6-.9 6.3-2.6c.2-.2.4-.4.6-.7zm14.1-12.9v17.6h-1.8V36.3h-8v-1.8h17.7v1.8h-7.9zm11.6-1.8h1.8v2.7c.3-.4.7-.9 1.1-1.3 2.1-2.1 4.7-3.2 7.7-3.2s5.6 1.1 7.7 3.2c2.1 2.1 3.2 4.7 3.2 7.7s-1 5.5-3.2 7.6c-2.1 2.1-4.7 3.2-7.7 3.2s-5.5-1.1-7.7-3.2c-.4-.4-.8-.9-1.1-1.3v11.3h-1.8V34.5zm1.8 7.3v3.7c.3 1.7 1.2 3.2 2.4 4.5 1.7 1.7 3.9 2.6 6.3 2.6 2.5 0 4.6-.9 6.3-2.6 1.7-1.7 2.6-3.9 2.6-6.3 0-2.5-.9-4.6-2.6-6.3-1.7-1.7-3.9-2.6-6.3-2.6-2.5 0-4.6.9-6.3 2.6-1.2 1.2-2 2.7-2.4 4.4zm44.3 12.1h-1.8V50c-.3.5-.7.9-1.1 1.3-2.1 2.1-4.7 3.2-7.7 3.2s-5.5-1.1-7.7-3.2c-2.1-2.1-3.2-4.7-3.2-7.6 0-3 1.1-5.6 3.2-7.7 2.1-2.1 4.7-3.2 7.7-3.2s5.6 1.1 7.7 3.2c.4.4.8.9 1.1 1.3v-2.7h1.8v19.3zm-1.7-8.5v-3.5c-.3-1.7-1.2-3.3-2.5-4.6-1.7-1.7-3.9-2.6-6.3-2.6-2.5 0-4.6.9-6.3 2.6-1.7 1.7-2.6 3.9-2.6 6.3 0 2.5.9 4.6 2.6 6.3 1.7 1.7 3.9 2.6 6.3 2.6 2.5 0 4.6-.9 6.3-2.6 1.3-1.3 2.1-2.8 2.5-4.5z" fill="#C31D1F"/><path fill-rule="evenodd" clip-rule="evenodd" d="M78.2 24.4l-.5.3c-.4-.6-1-.9-1.8-.9-.6 0-1.1.2-1.5.6-.4.4-.6.9-.6 1.4 0 .4.1.7.3 1 .2.3.4.6.8.7.3.2.7.3 1.1.3.7 0 1.3-.3 1.8-.9l.5.3c-.2.4-.6.6-1 .8-.4.2-.9.3-1.4.3-.8 0-1.4-.3-2-.7-.5-.5-.8-1.1-.8-1.8 0-.5.1-.9.4-1.3.2-.4.6-.7 1-1 .4-.2.9-.3 1.4-.3.3 0 .7.1 1 .2.3.1.6.2.8.4.2.1.3.3.5.6zm5.4 2.3l.5.3c-.2.3-.4.6-.6.8-.2.2-.5.4-.8.5-.3.1-.6.2-1 .2-.8 0-1.5-.3-1.9-.8-.5-.5-.7-1.1-.7-1.8 0-.6.2-1.2.6-1.7.5-.6 1.2-.9 2-.9.9 0 1.5.3 2 1 .4.5.5 1 .6 1.7h-4.5c0 .6.2 1.1.6 1.4.4.4.8.6 1.3.6.3 0 .5 0 .7-.1l.6-.3c.2-.4.4-.6.6-.9zm0-1.4c-.1-.3-.2-.6-.4-.8-.2-.2-.4-.4-.7-.5-.3-.1-.6-.2-.9-.2-.5 0-.9.2-1.3.5-.3.2-.5.6-.6 1h3.9zm1.4-2h3.3v.6H87v4.4h-.6v-4.4H85v-.6zm4.7 2h.6c.5 0 .9 0 1.1.1.3.1.5.2.7.5.2.3.3.6.3.9 0 .4-.1.8-.4 1.1-.3.3-.7.4-1.3.4H89v-5h.6v2h.1zm.1.6v1.9h.7c.9 0 1.3-.3 1.3-.9 0-.2 0-.3-.1-.5s-.2-.3-.4-.4c-.2-.1-.5-.1-.9-.1h-.6zm11.2-1.5l-.5.3c-.4-.6-1-.9-1.8-.9-.6 0-1.1.2-1.5.6-.4.4-.6.9-.6 1.4 0 .4.1.7.3 1 .2.3.4.6.8.7.3.2.7.3 1.1.3.7 0 1.3-.3 1.8-.9l.5.3c-.2.4-.6.6-1 .8-.4.2-.9.3-1.4.3-.8 0-1.4-.3-2-.7-.5-.5-.8-1.1-.8-1.8 0-.5.1-.9.4-1.3.2-.4.6-.7 1-1 .4-.2.9-.3 1.4-.3.3 0 .7.1 1 .2.3.1.6.2.8.4.1.1.3.3.5.6zm.7-1.1h3.3v.6h-1.3v4.4h-.7v-4.4h-1.3v-.6zm6.5-.1c.8 0 1.4.3 1.9.8s.7 1.1.7 1.8-.2 1.3-.7 1.8c-.5.5-1.1.8-1.9.8-.8 0-1.4-.3-1.9-.8s-.7-1.1-.7-1.8.2-1.3.7-1.8c.5-.5 1.1-.8 1.9-.8zm0 .6c-.5 0-1 .2-1.4.6-.4.4-.6.9-.6 1.4 0 .4.1.7.3 1 .2.3.4.5.7.7.3.2.6.3 1 .3s.7-.1 1-.3c.3-.2.5-.4.7-.7.2-.3.3-.6.3-1 0-.6-.2-1-.6-1.4-.4-.4-.9-.6-1.4-.6zm9.2-.5h.2l1.7 5h-.7l-1.2-3.7-1.9 3.7h-.1l-1.9-3.7-1.2 3.7h-.7l1.7-5h.2l2 3.9 1.9-3.9zm7.8 0v5h-.6v-.9c-.3.3-.6.6-.9.7-.3.2-.7.2-1.1.2-.7 0-1.3-.3-1.8-.8s-.7-1.1-.7-1.9c0-.7.3-1.3.8-1.8s1.1-.8 1.8-.8c.4 0 .8.1 1.1.3.3.2.6.4.9.8v-.9h.5v.1zm-2.6.5c-.4 0-.7.1-1 .3-.3.2-.5.4-.7.7-.2.3-.3.7-.3 1 0 .3.1.7.3 1 .2.3.4.6.7.7.3.2.6.3 1 .3.3 0 .7-.1 1-.3.3-.2.6-.4.7-.7.2-.3.3-.6.3-1 0-.6-.2-1.1-.6-1.4-.4-.4-.8-.6-1.4-.6zm3.5-.5h3.3v.6H128v4.4h-.6v-4.4h-1.3v-.6zm6.5-.1c.8 0 1.4.3 1.9.8s.7 1.1.7 1.8-.2 1.3-.7 1.8c-.5.5-1.1.8-1.9.8-.8 0-1.4-.3-1.9-.8s-.7-1.1-.7-1.8.2-1.3.7-1.8c.5-.5 1.1-.8 1.9-.8zm0 .6c-.5 0-1 .2-1.4.6-.4.4-.6.9-.6 1.4 0 .4.1.7.3 1 .2.3.4.5.7.7.3.2.6.3 1 .3s.7-.1 1-.3c.3-.2.5-.4.7-.7.2-.3.3-.6.3-1 0-.6-.2-1-.6-1.4-.4-.4-.9-.6-1.4-.6zm8 4.5h-.7l-1.7-3.6-1.7 3.6h-.7l2.3-5h.1l2.4 5zm3.3-5.1c.8 0 1.4.3 1.9.8s.7 1.1.7 1.8-.2 1.3-.7 1.8c-.5.5-1.1.8-1.9.8-.8 0-1.4-.3-1.9-.8s-.7-1.1-.7-1.8.2-1.3.7-1.8c.5-.5 1.2-.8 1.9-.8zm0 .6c-.5 0-1 .2-1.4.6-.4.4-.6.9-.6 1.4 0 .4.1.7.3 1 .2.3.4.5.7.7.3.2.6.3 1 .3s.7-.1 1-.3c.3-.2.5-.4.7-.7.2-.3.3-.6.3-1 0-.6-.2-1-.6-1.4-.4-.4-.8-.6-1.4-.6zm4.5.1v4.4h-.6v-5h2.5v.6h-1.9zm3.3-.6V27l3.7-3.7h.1v5h-.6v-3.7l-3.6 3.7h-.1v-5h.5zm5.8 0V27l3.7-3.7h.1v5h-.6v-3.7l-3.6 3.7h-.1v-5h.5zm-.1-2h.6c.1.2.2.3.4.4.2.1.4.1.6.1.2 0 .4 0 .6-.1.2-.1.3-.2.4-.4h.6c-.1.3-.2.5-.5.7-.3.2-.6.3-1.1.3-.4 0-.8-.1-1.1-.3-.2-.2-.4-.4-.5-.7z" fill="#666"/></svg>