<svg width="42" height="42" fill="none" xmlns="http://www.w3.org/2000/svg"><circle cx="21" cy="21" r="20.5" fill="#1B73B2" stroke="#fff"/><path d="M27.349 32.203c3.505-2.212 5.691-6.106 5.691-10.388 0-3.701-1.63-7.118-4.348-9.407l-6.54 15.428h-2.303l-6.54-15.427a12.273 12.273 0 00-4.35 9.406c0 4.282 2.188 8.176 5.693 10.388L13.475 35C8.889 32.29 6 27.307 6 21.815 6 16.451 8.833 10.827 14.662 8l6.358 14.939L27.338 8C33.167 10.827 36 16.45 36 21.815c0 5.492-2.889 10.48-7.475 13.185l-1.176-2.797z" fill="#fff"/></svg>