<svg width="42" height="42" viewBox="0 0 42 42" fill="none" xmlns="http://www.w3.org/2000/svg">
<circle cx="21" cy="21" r="20.5" fill="#6C2A81" stroke="white"/>
<path d="M27.3485 32.2034C30.8535 29.9915 33.0404 26.0966 33.0404 21.8153C33.0404 18.1136 31.4091 14.6966 28.6919 12.4085L22.1515 27.8356H19.8485L13.3081 12.4085C10.5909 14.6966 8.9596 18.1136 8.9596 21.8153C8.9596 26.0966 11.1465 29.9915 14.6515 32.2034L13.4747 35C8.88889 32.2898 6 27.3068 6 21.8153C6 16.4508 8.83333 10.8271 14.6616 8L21.0202 22.939L27.3384 8C33.1667 10.8271 36 16.4508 36 21.8153C36 27.3068 33.1111 32.2949 28.5253 35L27.3485 32.2034Z" fill="white"/>
</svg>
