<svg width="199" height="10" viewBox="0 0 199 10" fill="none" xmlns="http://www.w3.org/2000/svg">
<path d="M93.7742 10C90.317 10 87.9403 7.8 85.9957 6.2C84.2671 4.8 82.3225 3.2 80.1618 3.2C79.5136 3.2 78.8654 3.4 78.6493 3.6C77.785 4 76.7047 4.8 76.9207 6.4C77.1368 7.2 77.5689 8 78.2172 8.4C78.8654 8.8 79.9457 8.8 80.5939 8.2C80.81 8 81.2421 8 81.4582 8.2C81.6743 8.4 81.6743 8.8 81.4582 9C80.3779 10.2 78.8654 10 77.5689 9.4C76.7047 8.8 75.8404 7.8 75.6243 6.4C75.4082 4.8 76.2725 3.4 78.0011 2.6C78.6493 2.4 79.2975 2.2 80.1618 2.2C82.9707 2 85.1314 3.8 87.076 5.4C89.6688 7.6 91.8295 9.4 95.0706 8.8C96.367 8.6 97.4473 8 98.0956 7C98.7438 6 98.9598 5 98.5277 3.8C98.0955 2.2 96.5831 1.6 95.5027 1.4C94.2063 1.2 93.126 1.8 92.6938 2.6C92.4777 2.8 92.2617 3 91.8295 2.8C91.6135 2.6 91.3974 2.4 91.6135 2C92.2617 0.6 93.9902 0 95.5027 0C97.4473 0.2 99.1759 1.4 99.608 3.2C100.04 4.6 99.8241 6.2 99.1759 7.4C98.3116 8.6 97.0152 9.4 95.5027 9.6C94.8545 10 94.4224 10 93.7742 10Z" fill="#D8D0C8"/>
<path d="M93.9083 4.0404C94.559 3.55545 94.6617 2.6741 94.1378 2.07186C93.6139 1.46961 92.6617 1.37453 92.0111 1.85948C91.3604 2.34443 91.2577 3.22578 91.7816 3.82802C92.3055 4.43027 93.2577 4.52535 93.9083 4.0404Z" fill="#D8D0C8"/>
<path d="M81.195 9.13026C81.8456 8.64531 81.9484 7.76397 81.4244 7.16172C80.9005 6.55948 79.9484 6.46439 79.2977 6.94934C78.6471 7.43429 78.5444 8.31563 79.0683 8.91788C79.5922 9.52012 80.5444 9.61521 81.195 9.13026Z" fill="#D8D0C8"/>
<path d="M105.01 10C104.578 10 104.145 10 103.713 9.8C101.985 9.6 100.688 8.8 100.04 7.6C99.1759 6.4 98.9598 4.8 99.608 3.4C100.04 1.6 101.769 0.4 103.713 0.2C105.442 0 106.954 0.8 107.819 2.2C108.035 2.4 107.819 2.8 107.603 3C107.387 3.2 106.954 3 106.738 2.8C106.306 1.8 105.226 1.4 103.929 1.6C102.849 1.6 101.337 2.4 100.904 4C100.472 5.2 100.688 6.4 101.337 7.2C101.985 8 102.849 8.6 104.362 9C107.603 9.6 109.979 7.8 112.356 5.6C114.301 4 116.461 2.2 119.27 2.4C120.135 2.4 120.783 2.6 121.431 2.8C123.16 3.6 124.024 5 123.808 6.6C123.592 7.8 122.944 9 121.863 9.4C120.783 10 119.054 10 117.974 9C117.758 8.8 117.758 8.4 117.974 8.2C118.19 8 118.622 8 118.838 8.2C119.486 8.8 120.351 8.8 121.215 8.4C121.863 8 122.511 7.2 122.511 6.4C122.727 5 121.647 4.2 120.783 3.8C120.351 3.6 119.702 3.4 119.27 3.4C117.11 3.4 114.949 4.8 113.436 6.4C111.06 7.8 108.467 10 105.01 10Z" fill="#D8D0C8"/>
<path d="M107.36 3.87622C107.884 3.27398 107.781 2.39263 107.13 1.90768C106.48 1.42273 105.528 1.51782 105.004 2.12006C104.48 2.72231 104.582 3.60365 105.233 4.0886C105.884 4.57355 106.836 4.47847 107.36 3.87622Z" fill="#D8D0C8"/>
<path d="M119.916 8.91978C120.44 8.31753 120.337 7.43619 119.687 6.95124C119.036 6.46629 118.084 6.56137 117.56 7.16362C117.036 7.76586 117.139 8.64721 117.79 9.13216C118.44 9.61711 119.392 9.52202 119.916 8.91978Z" fill="#D8D0C8"/>
<path d="M197.271 6.2H122.727C122.295 6.2 122.079 6 122.079 5.6C122.079 5.2 122.295 5 122.727 5H197.271C197.704 5 197.92 5.2 197.92 5.6C197.92 6 197.704 6.2 197.271 6.2Z" fill="#D8D0C8"/>
<path d="M76.2725 6.2H1.72856C1.29642 6.2 1.08035 6 1.08035 5.6C1.08035 5.2 1.29642 5 1.72856 5H76.2725C76.7047 5 76.9207 5.2 76.9207 5.6C76.9207 6 76.4886 6.2 76.2725 6.2Z" fill="#D8D0C8"/>
<path d="M1.72856 7.2C2.68321 7.2 3.45711 6.48366 3.45711 5.6C3.45711 4.71634 2.68321 4 1.72856 4C0.773901 4 0 4.71634 0 5.6C0 6.48366 0.773901 7.2 1.72856 7.2Z" fill="#D8D0C8"/>
<path d="M197.271 7.2C198.226 7.2 199 6.48366 199 5.6C199 4.71634 198.226 4 197.271 4C196.317 4 195.543 4.71634 195.543 5.6C195.543 6.48366 196.317 7.2 197.271 7.2Z" fill="#D8D0C8"/>
</svg>
