<svg width="32" height="43" fill="none" xmlns="http://www.w3.org/2000/svg"><path d="M30.77 27.74H20.337c-.666 0-1.21.544-1.21 1.209 0 .664.544 1.207 1.21 1.207h3.269a11.303 11.303 0 01-9.1 4.61c-6.214 0-11.259-5.052-11.259-11.233 0-5.254 3.572-9.743 8.676-10.951l-.08-.342 5.77 9.542 7.102-4.288L15.98 3.08a1.685 1.685 0 00-1.07-.785c-.403-.1-.827-.06-1.21.14L12.227 0 7.889 2.617l1.473 2.416a1.694 1.694 0 00-.686 1.006 1.72 1.72 0 00.202 1.329l1.412 2.315A14.372 14.372 0 000 23.513c0 6.341 4.116 11.736 9.806 13.69a5.163 5.163 0 00-1.473 3.603V43H20.68v-2.194c0-1.41-.565-2.678-1.473-3.604a14.53 14.53 0 008.192-7.046h3.39c.665 0 1.21-.543 1.21-1.207a1.244 1.244 0 00-1.23-1.208zM11.5 9.362l5.045-3.04.746 1.248-5.024 3.04-.766-1.248zm6.518 10.73l-5.125-8.455 5.024-3.04 5.125 8.455-5.024 3.04zM9.846 6.32a.5.5 0 01.242-.32l.908-.543L9.543 3.04l2.28-1.37 1.473 2.417.908-.544a.48.48 0 01.404-.06.5.5 0 01.323.241l.968 1.59-5.024 3.02-.968-1.59c-.06-.141-.081-.282-.06-.423zm.908 34.263c.121-1.409 1.312-2.536 2.744-2.536h1.977a2.75 2.75 0 012.744 2.536h-7.465z" fill="#fff"/><path d="M25.329 18.358l-7.234 4.364.626 1.034 7.234-4.364-.626-1.034z" fill="#fff"/></svg>