<svg width="31" height="21" fill="none" xmlns="http://www.w3.org/2000/svg"><path d="M5.44 21c5.68-1.6 11.185-8.054 9.305-15.191C13.72 1.953 10.373-.385 6.627.052 3.094.462.227 3.58.015 7.204c-.227 3.842 2.212 7.205 5.878 8.04.8.177 1.64.164 2.587.246-.08 2.297-1.307 3.992-3.04 5.51zm16.024-.055c5.812-1.668 9.838-7.329 9.518-13.263C30.77 3.785 28.036.586 24.477.08c-3.52-.506-6.946 1.64-8.132 5.1-1.786 5.21 2.146 10.583 7.532 10.269.146-.014.306 0 .56 0-.2 2.297-1.307 4.047-2.973 5.496z" fill="#878183"/></svg>