<svg width="296" height="16" fill="none" xmlns="http://www.w3.org/2000/svg"><path d="M139.483 16c-5.142 0-8.677-3.52-11.57-6.08-2.571-2.24-5.463-4.8-8.677-4.8-.965 0-1.929.32-2.25.64-1.286.64-2.893 1.92-2.571 4.48.321 1.28.964 2.56 1.928 3.2.964.64 2.571.64 3.535-.32.322-.32.965-.32 1.286 0 .321.32.321.96 0 1.28-1.607 1.92-3.857 1.6-5.785.64-1.286-.96-2.571-2.56-2.893-4.8-.321-2.56.965-4.8 3.536-6.08.964-.32 1.928-.64 3.214-.64 4.178-.32 7.392 2.56 10.284 5.12 3.857 3.52 7.071 6.4 11.892 5.44 1.928-.32 3.535-1.28 4.499-2.88.964-1.6 1.286-3.2.643-5.12-.643-2.56-2.893-3.52-4.5-3.84-1.928-.32-3.535.64-4.178 1.92-.321.32-.643.64-1.285.32-.322-.32-.643-.64-.322-1.28.964-2.24 3.536-3.2 5.785-3.2 2.893.32 5.464 2.24 6.107 5.12.642 2.24.321 4.8-.643 6.72-1.286 1.92-3.214 3.2-5.464 3.52-.964.64-1.607.64-2.571.64z" fill="#878183"/><path d="M139.683 6.465a2.234 2.234 0 00.341-3.15 2.256 2.256 0 00-3.163-.34 2.234 2.234 0 00-.342 3.15 2.257 2.257 0 003.164.34zm-18.911 8.143a2.234 2.234 0 00.342-3.15 2.257 2.257 0 00-3.164-.34 2.234 2.234 0 00-.341 3.15 2.256 2.256 0 003.163.34zM156.195 16c-.642 0-1.285 0-1.928-.32-2.571-.32-4.499-1.6-5.464-3.52-1.285-1.92-1.606-4.48-.642-6.72.642-2.88 3.214-4.8 6.106-5.12 2.571-.32 4.821.96 6.107 3.2.321.32 0 .96-.322 1.28-.321.32-.964 0-1.285-.32-.643-1.6-2.25-2.24-4.179-1.92-1.606 0-3.856 1.28-4.499 3.84-.643 1.92-.321 3.84.643 5.12.964 1.28 2.25 2.24 4.499 2.88 4.821.96 8.356-1.92 11.892-5.44 2.892-2.56 6.106-5.44 10.284-5.12 1.286 0 2.25.32 3.214.64 2.571 1.28 3.857 3.52 3.535 6.08-.321 1.92-1.285 3.84-2.892 4.48-1.607.96-4.178.96-5.785-.64-.322-.32-.322-.96 0-1.28.321-.32.964-.32 1.285 0 .965.96 2.25.96 3.536.32.964-.64 1.928-1.92 1.928-3.2.321-2.24-1.286-3.52-2.571-4.16-.643-.32-1.607-.64-2.25-.64-3.214 0-6.428 2.24-8.677 4.8-3.536 2.24-7.392 5.76-12.535 5.76z" fill="#878183"/><path d="M159.691 6.202a2.234 2.234 0 00-.341-3.15 2.257 2.257 0 00-3.164.34 2.234 2.234 0 00.342 3.15 2.256 2.256 0 003.163-.34zm18.677 8.07a2.234 2.234 0 00-.341-3.15 2.257 2.257 0 00-3.164.34 2.234 2.234 0 00.342 3.15 2.256 2.256 0 003.163-.34zM293.429 9.92h-110.88c-.642 0-.964-.32-.964-.96 0-.64.322-.96.964-.96h110.88c.643 0 .964.32.964.96 0 .64-.321.96-.964.96zm-179.978 0H2.571c-.643 0-.964-.32-.964-.96 0-.64.321-.96.964-.96h110.88c.642 0 .964.32.964.96 0 .64-.643.96-.964.96z" fill="#878183"/><path d="M2.571 11.52a2.566 2.566 0 002.571-2.56 2.566 2.566 0 00-2.57-2.56A2.566 2.566 0 000 8.96a2.566 2.566 0 002.571 2.56zm290.858 0A2.566 2.566 0 00296 8.96a2.565 2.565 0 00-2.571-2.56 2.565 2.565 0 00-2.571 2.56 2.566 2.566 0 002.571 2.56z" fill="#878183"/></svg>