<svg width="104" height="45" fill="none" xmlns="http://www.w3.org/2000/svg"><path stroke="#878183" stroke-width="2" d="M1 1h102v43H1z"/><path d="M12.222 19.132c.913 0 1.727-.484 2.354-1.749l3.047-6.083h-.946l-2.453 5.027-2.838-5.027h-.99l3.388 5.896c-.451.858-1.012 1.155-1.54 1.155-.407 0-.671-.066-.979-.231l-.341.693c.407.209.792.319 1.298.319zm8.31-.132h.848v-6.226l2.805 4.114h.044l2.805-4.125V19h.869v-7.7h-.88l-2.805 4.202-2.805-4.202h-.88V19zm10.98 0h.87v-3.465h4.444V19h.868v-7.7h-.869v3.421h-4.444V11.3h-.869V19zm9.788 0h2.948c1.749 0 2.86-.946 2.86-2.453 0-1.606-1.342-2.266-2.992-2.266h-1.947V11.3h-.87V19zm.869-.792v-3.146h2.002c1.276 0 2.068.506 2.068 1.507 0 1.089-.781 1.639-2.013 1.639h-2.057zm5.929.792h.869v-7.7h-.87V19zm4.472 0h5.62v-.792h-4.75v-2.695h4.202v-.792H53.44v-2.629h4.697V11.3H52.57V19zm16.123.11c1.617 0 2.75-.858 2.75-2.299 0-1.298-.847-1.881-2.475-2.277-1.474-.352-1.826-.616-1.826-1.21 0-.528.462-.935 1.254-.935.704 0 1.397.275 2.09.792l.726-1.023c-.781-.627-1.672-.968-2.794-.968-1.53 0-2.63.913-2.63 2.233 0 1.441.925 1.925 2.564 2.31 1.43.341 1.738.638 1.738 1.188 0 .605-.528.99-1.364.99-.957 0-1.694-.363-2.431-1.001l-.814.968a4.743 4.743 0 003.212 1.232zm5.77-.11h5.765v-1.21h-4.411v-2.068h3.86v-1.21h-3.86V12.51h4.356V11.3h-5.71V19zm12.474.132c2.365 0 4.037-1.815 4.037-3.982 0-2.189-1.65-3.982-4.015-3.982-2.365 0-4.037 1.815-4.037 3.982 0 2.189 1.65 3.982 4.015 3.982zm.022-1.243c-1.529 0-2.618-1.243-2.618-2.739 0-1.518 1.067-2.739 2.596-2.739 1.529 0 2.618 1.243 2.618 2.739 0 1.518-1.067 2.739-2.596 2.739zM13.124 34h.88v-6.908h2.585V26.3h-6.05v.792h2.585V34zm5.098 0h5.62v-.792h-4.751v-2.695h4.202v-.792H19.09v-2.629h4.697V26.3h-5.566V34zm6.786 0h1.001l2.464-3.311L30.937 34h1.034l-2.959-3.938 2.849-3.762h-1.012l-2.343 3.146-2.365-3.146h-1.023l2.849 3.773L25.008 34zm8.554 0h.869v-3.465h4.444V34h.869v-7.7h-.87v3.421h-4.443V26.3h-.87V34zm11.932.132c2.343 0 3.938-1.859 3.938-3.982 0-2.145-1.573-3.982-3.916-3.982s-3.938 1.859-3.938 3.982c0 2.145 1.573 3.982 3.916 3.982zm.022-.803c-1.76 0-3.036-1.43-3.036-3.179 0-1.771 1.254-3.179 3.014-3.179 1.76 0 3.036 1.43 3.036 3.179 0 1.771-1.254 3.179-3.014 3.179zm5.606.759c1.188 0 2.288-.759 2.288-6.16v-.836h3.278V34h.869v-7.7h-4.983v1.397c0 5.247-1.001 5.61-1.595 5.61-.242 0-.561-.055-.682-.11l-.176.704c.198.077.66.187 1 .187zm12.183.044c2.343 0 3.938-1.859 3.938-3.982 0-2.145-1.573-3.982-3.916-3.982s-3.938 1.859-3.938 3.982c0 2.145 1.573 3.982 3.916 3.982zm.022-.803c-1.76 0-3.036-1.43-3.036-3.179 0-1.771 1.254-3.179 3.014-3.179 1.76 0 3.036 1.43 3.036 3.179 0 1.771-1.254 3.179-3.014 3.179zm5.748.671h.87v-6.908h4.047V26.3h-4.917V34zm6.478 0h.847l4.587-6.391V34h.858v-7.7h-.825l-4.598 6.391V26.3h-.87V34zm8.465 0h.847l4.587-6.391V34h.858v-7.7h-.825l-4.598 6.391V26.3h-.87V34z" fill="#878183"/></svg>