<svg width="32" height="25" fill="none" xmlns="http://www.w3.org/2000/svg"><path d="M20.917 10.74L13.85 6.85a1.275 1.275 0 00-1.287.025A1.3 1.3 0 0011.926 8v7.711c0 .465.237.88.63 1.119a1.282 1.282 0 001.281.031l7.066-3.82c.419-.227.681-.667.681-1.144a1.297 1.297 0 00-.668-1.157zM13.8 14.737V8.974l5.28 2.91-5.28 2.853z" fill="#878183"/><path d="M31.75 5.75v-.012c-.025-.258-.3-2.564-1.412-3.733C29.051.622 27.596.459 26.896.377a5.48 5.48 0 01-.156-.019l-.063-.006C22.447.044 16.063 0 16 0h-.012C15.925 0 9.54.044 5.273.352l-.056.006a4.863 4.863 0 01-.15.02c-.694.08-2.137.244-3.43 1.677C.575 3.211.269 5.468.237 5.719l-.006.031C.225 5.857 0 8.428 0 11.004v2.407c0 2.577.225 5.141.237 5.248v.019c.025.257.294 2.514 1.406 3.689 1.212 1.332 2.743 1.508 3.561 1.602.131.013.244.025.319.044l.075.013c2.443.232 10.096.352 10.42.352h.026c.062 0 6.447-.044 10.677-.352l.056-.006.181-.02c.688-.075 2.124-.226 3.399-1.633 1.062-1.157 1.368-3.413 1.4-3.664l.006-.032c.012-.107.237-2.67.237-5.247v-2.407a68.982 68.982 0 00-.25-5.267zm-1.637 7.661c0 2.382-.206 4.84-.225 5.066-.08.622-.4 2.048-.918 2.614-.8.88-1.612.968-2.212 1.03a1.731 1.731 0 00-.2.026c-4.092.295-10.233.345-10.52.345-.32-.006-7.86-.12-10.228-.339a5.563 5.563 0 00-.393-.05c-.7-.082-1.662-.189-2.4-1.006L3 21.078c-.506-.534-.825-1.866-.9-2.583-.012-.17-.225-2.652-.225-5.071v-2.407c0-2.382.206-4.833.225-5.066.094-.729.425-2.073.919-2.614.818-.911 1.686-1.012 2.261-1.075l.15-.018c4.149-.302 10.34-.346 10.558-.346.225 0 6.41.044 10.521.346l.163.018c.587.07 1.48.17 2.293 1.044l.006.006c.506.534.825 1.892.9 2.627.012.163.224 2.652.224 5.072v2.4h.02z" fill="#878183"/></svg>