<svg width="18" height="32" fill="none" xmlns="http://www.w3.org/2000/svg"><path d="M11.118 32H6.04a1.543 1.543 0 01-1.536-1.55V18.887H1.536A1.543 1.543 0 010 17.337v-4.95c0-.856.688-1.55 1.536-1.55h2.96v-2.48c0-2.457.769-4.55 2.212-6.05C8.17.793 10.202 0 12.593 0l3.87.006c.85 0 1.537.7 1.537 1.55v4.6c0 .857-.688 1.55-1.536 1.55h-2.608c-.793 0-.997.163-1.04.213-.075.081-.155.312-.155.95v1.962h3.61c.273 0 .534.069.763.194.49.275.793.794.793 1.356v4.95c0 .857-.688 1.55-1.537 1.55h-3.623v11.556c-.012.87-.7 1.563-1.549 1.563zm-4.757-1.875h4.435V18.05c0-.569.459-1.038 1.029-1.038h4.131v-4.306h-4.138a1.034 1.034 0 01-1.028-1.037V8.875c0-.731.074-1.569.62-2.194.662-.756 1.71-.843 2.434-.843h2.285V1.88l-3.536-.006c-3.84 0-6.232 2.481-6.232 6.475v3.319c0 .569-.458 1.037-1.028 1.037H1.858v4.306h3.475c.564 0 1.028.463 1.028 1.038v12.075z" fill="#878183"/></svg>