<svg width="32" height="32" fill="none" xmlns="http://www.w3.org/2000/svg"><path d="M23.337 0H8.662C3.887 0 0 3.888 0 8.662v14.675C0 28.113 3.888 32 8.662 32h14.675C28.113 32 32 28.113 32 23.337V8.662C32 3.887 28.113 0 23.337 0zm6.788 23.337a6.794 6.794 0 01-6.788 6.788H8.662a6.794 6.794 0 01-6.787-6.788V8.662a6.794 6.794 0 016.787-6.787h14.675a6.794 6.794 0 016.788 6.787v14.675z" fill="#878183"/><path d="M16 7.25c-4.825 0-8.75 3.925-8.75 8.75s3.925 8.75 8.75 8.75 8.75-3.925 8.75-8.75S20.825 7.25 16 7.25zm0 15.625c-3.787 0-6.875-3.081-6.875-6.875 0-3.787 3.081-6.875 6.875-6.875A6.883 6.883 0 0122.875 16c0 3.788-3.087 6.875-6.875 6.875zm8.956-18.731A2.593 2.593 0 0022.37 6.73a2.593 2.593 0 002.587 2.588 2.593 2.593 0 002.588-2.588 2.589 2.589 0 00-2.588-2.587zm0 3.293a.712.712 0 110-1.424.712.712 0 010 1.425z" fill="#878183"/></svg>