<svg width="32" height="34" fill="none" xmlns="http://www.w3.org/2000/svg"><path d="M31.689 10.36L21.786.318a1.097 1.097 0 00-1.544 0c-.418.424-.418 1.124 0 1.566l1.435 1.456-3.325 3.353-1.436-1.455-1.471-1.493a1.097 1.097 0 00-1.545 0c-.418.424-.418 1.124 0 1.566l1.472 1.493L1.326 21.065 3.49 27.33 0 30.886.018 34l5.033-5.104 6.178 2.193 14.046-14.243 1.472 1.492c.218.221.49.332.763.332.272 0 .563-.11.763-.332.418-.424.418-1.124 0-1.566l-2.89-2.93 3.326-3.372 1.435 1.456c.218.221.49.332.764.332.272 0 .563-.11.763-.332a1.118 1.118 0 00.018-1.566zm-7.94 4.938L10.665 28.564l-5.051-1.787-1.763-5.122 1.98-2.009 1.6 1.622a.52.52 0 00.763 0 .54.54 0 000-.774l-1.6-1.622 2.109-2.137 1.598 1.622a.52.52 0 00.763 0 .54.54 0 000-.774L9.468 15.96l2.107-2.156 1.6 1.622a.52.52 0 00.763 0 .54.54 0 000-.774l-1.6-1.621 2.108-2.138 1.6 1.622a.55.55 0 00.38.165.55.55 0 00.382-.165.54.54 0 000-.774l-1.599-1.622 1.708-1.732 2.29 2.322 4.542 4.588zm.872-2.23l-1.345-1.363-4.143-4.201 3.325-3.372 5.506 5.583-3.343 3.353z" fill="#fff"/></svg>