<svg width="37" height="32" fill="none" xmlns="http://www.w3.org/2000/svg"><path d="M32.735 13.073A10.286 10.286 0 0026.8 11.06c1.046-3.354-.06-7.197-2.998-9.392C21.992.326 19.778-.244 17.565.102a8.33 8.33 0 00-5.513 3.334L1.65 17.626C.322 19.457-.24 21.694.101 23.93a8.448 8.448 0 003.3 5.57 8.338 8.338 0 0011.75-1.769l1.81-2.459a10.302 10.302 0 003.562 4.717A10.207 10.207 0 0026.619 32c3.3 0 6.438-1.606 8.39-4.31 3.36-4.655 2.354-11.222-2.274-14.617zM13.984 4.9a5.947 5.947 0 013.923-2.379 5.897 5.897 0 014.446 1.119c2.415 1.809 3.099 5.163 1.69 7.766a10.49 10.49 0 00-5.794 3.964 10.23 10.23 0 00-1.167 2.094l-7.927-5.977L13.984 4.9zm-.765 21.388c-1.972 2.683-5.714 3.253-8.37 1.26-1.287-.955-2.112-2.379-2.354-3.964a6.054 6.054 0 011.107-4.493l4.849-6.608 8.249 6.16a10.431 10.431 0 00-.383 3.436l-3.098 4.209zm7.002-9.495a7.941 7.941 0 016.438-3.293 7.71 7.71 0 014.165 1.2l-9.336 12.93c-3.138-2.684-3.742-7.421-1.267-10.837zm12.836 9.454a7.941 7.941 0 01-6.438 3.294 7.71 7.71 0 01-4.165-1.2l9.335-12.93c3.14 2.704 3.723 7.44 1.268 10.836z" fill="#fff"/><path d="M15.935 5.57c.14 0 .302-.06.422-.162 1.59-1.505 3.763-.549 3.863-.508.302.142.664 0 .805-.305a.62.62 0 00-.302-.814c-.12-.06-3.018-1.362-5.19.712a.594.594 0 00-.02.854c.1.163.26.224.422.224z" fill="#fff"/></svg>