<svg width="32" height="32" fill="none" xmlns="http://www.w3.org/2000/svg"><path d="M25.74 3.893c-.095-.038-2.309-1.03-3.97.554a.553.553 0 00-.018.801.592.592 0 00.42.172.656.656 0 00.4-.153c1.107-1.05 2.634-.362 2.71-.343a.58.58 0 00.764-.286c.114-.268-.02-.611-.306-.745z" fill="#fff"/><path d="M29.863 2.844l-.726-.726A7.265 7.265 0 0024.004 0c-1.947 0-3.76.763-5.134 2.137L3.812 17.195l.44 7.157-.058.057L.7 27.883c-.935.935-.935 2.461 0 3.416.936.935 2.462.935 3.416 0l3.474-3.474.057-.057 7.157.439 15.058-15.058A7.236 7.236 0 0032 8.016a7.259 7.259 0 00-2.137-5.172zm-1.623 8.664L13.908 25.84l-5.706-.343a2.187 2.187 0 00-.63-1.088 2.513 2.513 0 00-1.088-.63l-.344-5.706 2.691-2.69 1.03 1.03a.582.582 0 00.402.171.55.55 0 00.4-.171.553.553 0 000-.802l-1.03-1.03 2.1-2.1 1.03 1.03a.582.582 0 00.4.173.582.582 0 00.401-.172.553.553 0 000-.802l-1.03-1.03 2.1-2.1 1.03 1.031a.582.582 0 00.4.172.582.582 0 00.401-.172.553.553 0 000-.802l-1.03-1.03 2.099-2.1 1.03 1.031a.582.582 0 00.401.172.55.55 0 00.401-.172.553.553 0 000-.801l-1.03-1.031 2.099-2.1a4.953 4.953 0 013.511-1.45 4.92 4.92 0 013.512 1.45l.725.726a4.953 4.953 0 011.45 3.512c.077 1.297-.438 2.557-1.393 3.492z" fill="#fff"/><path d="M22.343 8.836L11.77 19.41a.553.553 0 000 .802.582.582 0 00.401.171.55.55 0 00.4-.172L23.146 9.639a.553.553 0 000-.802.553.553 0 00-.802 0z" fill="#fff"/></svg>