<svg width="32" height="41" fill="none" xmlns="http://www.w3.org/2000/svg"><path d="M28.209 24.44c0-1.33.62-2.272.62-2.272l.047-.072.048-.097c2.742-5.15 3.052-9.573 3.076-9.767v-.096C32 3.965 26.706.629 23.893.024L23.75 0h-.143c-2.027 0-5.103 2.95-6.439 4.327a1.778 1.778 0 01-1.025.339l-.095-.024-.191.024h-.024c-.143 0-.596-.024-1.025-.339C13.496 2.95 10.42 0 8.418 0h-.144l-.167.024C5.294.653 0 3.964 0 12.16v.097c.024.169.334 4.617 3.076 9.742l.095.145s.62.943.62 2.272v.024c.048 2.37-.071 6.165-.453 7.204l-.047.194c-.048.17-.978 4.23 1.359 6.817.572.75 1.955 2.345 3.433 2.345 1.193 0 2.981-1.015 2.981-3.795v-.073c0-.048-.167-4.375 1.884-6.551.787-.822 1.788-1.233 3.076-1.233 1.287 0 2.289.41 3.076 1.233 2.05 2.176 1.884 6.503 1.884 6.551v.073c0 2.78 1.788 3.795 2.98 3.795 1.479 0 2.862-1.596 3.434-2.345 2.337-2.587 1.407-6.648 1.36-6.817l-.049-.194c-.381-1.015-.5-4.834-.453-7.204h-.047zm-1.765-3.867c-.262.386-1.097 1.837-1.097 3.843-.024 1.064-.071 6.189.62 8.171.167.774.358 2.974-.715 4.134l-.095.121c-.358.483-.907 1.015-1.217 1.209-.024-.121-.095-.46-.095-.822.024-.556.12-5.657-2.67-8.63-1.336-1.427-3.053-2.128-5.151-2.128-2.099 0-3.815.725-5.15 2.128-2.814 2.973-2.695 8.074-2.671 8.63 0 .41-.072.677-.143.797-.31-.217-.811-.725-1.169-1.184l-.095-.12c-1.073-1.161-.906-3.313-.716-4.135.692-2.006.644-7.107.62-8.17 0-2.031-.834-3.458-1.096-3.845-2.313-4.302-2.695-8.05-2.743-8.485.024-7.01 4.579-8.848 5.652-9.162.763.242 2.742 1.837 4.363 3.505l.143.145a4.696 4.696 0 002.838.992h.286c.477 0 1.717-.097 2.838-.992l.143-.145c1.621-1.692 3.624-3.287 4.363-3.505 1.05.314 5.628 2.152 5.652 9.162-.048.435-.43 4.207-2.695 8.486z" fill="#fff"/><path d="M7.797 4.835c-.143.072-3.457 1.861-3.1 5.463.048.363.358.653.716.653h.071c.382-.048.692-.387.644-.798-.262-2.61 2.242-3.964 2.337-4.037a.734.734 0 00.31-.967.715.715 0 00-.978-.314z" fill="#fff"/></svg>