<svg width="199" height="10" fill="none" xmlns="http://www.w3.org/2000/svg"><path d="M105.226 0c3.457 0 5.834 2.2 7.778 3.8 1.729 1.4 3.674 3 5.834 3 .648 0 1.297-.2 1.513-.4.864-.4 1.944-1.2 1.728-2.8-.216-.8-.648-1.6-1.296-2-.648-.4-1.729-.4-2.377.2-.216.2-.648.2-.864 0-.216-.2-.216-.6 0-.8 1.08-1.2 2.593-1 3.889-.4.864.6 1.729 1.6 1.945 3 .216 1.6-.649 3-2.377 3.8-.648.2-1.297.4-2.161.4-2.809.2-4.969-1.6-6.914-3.2-2.593-2.2-4.754-4-7.995-3.4-1.296.2-2.376.8-3.025 1.8-.648 1-.864 2-.432 3.2.432 1.6 1.945 2.2 3.025 2.4 1.297.2 2.377-.4 2.809-1.2.216-.2.432-.4.864-.2.217.2.433.4.217.8-.649 1.4-2.377 2-3.89 2-1.944-.2-3.673-1.4-4.105-3.2-.432-1.4-.216-3 .432-4.2.864-1.2 2.161-2 3.673-2.2.648-.4 1.081-.4 1.729-.4z" fill="#D8D0C8"/><path d="M105.092 5.96c-.651.485-.754 1.366-.23 1.968.524.602 1.476.697 2.127.213.651-.485.753-1.367.229-1.969-.524-.602-1.476-.697-2.126-.212zM117.805.87c-.651.485-.753 1.366-.229 1.968.523.603 1.476.698 2.126.213.651-.485.754-1.367.23-1.969-.524-.602-1.476-.697-2.127-.212zM93.99 0c.432 0 .865 0 1.297.2 1.728.2 3.025 1 3.673 2.2.864 1.2 1.08 2.8.432 4.2-.432 1.8-2.16 3-4.105 3.2-1.729.2-3.241-.6-4.106-2-.216-.2 0-.6.216-.8.216-.2.649 0 .865.2.432 1 1.512 1.4 2.809 1.2 1.08 0 2.592-.8 3.025-2.4.432-1.2.216-2.4-.433-3.2-.648-.8-1.512-1.4-3.025-1.8-3.24-.6-5.617 1.2-7.994 3.4-1.945 1.6-4.105 3.4-6.914 3.2-.865 0-1.513-.2-2.161-.4-1.729-.8-2.593-2.2-2.377-3.8.216-1.2.865-2.4 1.945-2.8 1.08-.6 2.809-.6 3.89.4.215.2.215.6 0 .8-.217.2-.65.2-.865 0-.648-.6-1.513-.6-2.377-.2-.648.4-1.296 1.2-1.296 2-.217 1.4.864 2.2 1.728 2.6.432.2 1.08.4 1.513.4 2.16 0 4.321-1.4 5.834-3C87.94 2.2 90.534 0 93.99 0z" fill="#D8D0C8"/><path d="M91.64 6.124c-.524.602-.421 1.483.23 1.968.65.485 1.602.39 2.126-.212.524-.602.422-1.484-.23-1.969-.65-.485-1.602-.39-2.126.213zM79.084 1.08c-.524.602-.421 1.484.23 1.969.65.485 1.602.39 2.126-.213.524-.602.421-1.483-.23-1.968-.65-.485-1.602-.39-2.126.212zM1.729 3.8h74.543c.433 0 .649.2.649.6 0 .4-.216.6-.649.6H1.73c-.433 0-.649-.2-.649-.6 0-.4.216-.6.649-.6zm120.998 0h74.544c.433 0 .649.2.649.6 0 .4-.216.6-.649.6h-74.544c-.432 0-.648-.2-.648-.6 0-.4.432-.6.648-.6z" fill="#D8D0C8"/><path d="M197.271 2.8c-.954 0-1.728.716-1.728 1.6 0 .884.774 1.6 1.728 1.6.955 0 1.729-.716 1.729-1.6 0-.884-.774-1.6-1.729-1.6zM1.729 2.8C.774 2.8 0 3.516 0 4.4 0 5.284.774 6 1.729 6c.954 0 1.728-.716 1.728-1.6 0-.884-.774-1.6-1.728-1.6z" fill="#D8D0C8"/></svg>