<svg width="199" height="10" fill="none" xmlns="http://www.w3.org/2000/svg"><path d="M93.774 10c-3.457 0-5.834-2.2-7.778-3.8-1.729-1.4-3.673-3-5.834-3-.648 0-1.297.2-1.513.4-.864.4-1.944 1.2-1.728 2.8.216.8.648 1.6 1.296 2 .648.4 1.729.4 2.377-.2.216-.2.648-.2.864 0 .216.2.216.6 0 .8-1.08 1.2-2.593 1-3.89.4-.863-.6-1.728-1.6-1.944-3-.216-1.6.648-3 2.377-3.8.648-.2 1.296-.4 2.16-.4 2.81-.2 4.97 1.6 6.915 3.2 2.593 2.2 4.754 4 7.995 3.4 1.296-.2 2.376-.8 3.025-1.8.648-1 .864-2 .432-3.2-.433-1.6-1.945-2.2-3.025-2.4-1.297-.2-2.377.4-2.81 1.2-.215.2-.431.4-.864.2-.215-.2-.432-.4-.215-.8.648-1.4 2.376-2 3.889-2 1.944.2 3.673 1.4 4.105 3.2.432 1.4.216 3-.432 4.2-.864 1.2-2.16 2-3.673 2.2-.648.4-1.08.4-1.729.4z" fill="#D8D0C8"/><path d="M93.908 4.04c.651-.485.754-1.366.23-1.968-.524-.602-1.476-.697-2.127-.213-.65.485-.753 1.367-.23 1.969.524.602 1.477.697 2.127.212zM81.195 9.13c.65-.485.753-1.366.23-1.968-.525-.603-1.477-.698-2.127-.213-.65.485-.754 1.367-.23 1.969.524.602 1.476.697 2.127.212zm23.815.87c-.432 0-.865 0-1.297-.2-1.728-.2-3.025-1-3.673-2.2-.864-1.2-1.08-2.8-.432-4.2.432-1.8 2.161-3 4.105-3.2 1.729-.2 3.241.6 4.106 2 .216.2 0 .6-.216.8-.216.2-.649 0-.865-.2-.432-1-1.512-1.4-2.809-1.2-1.08 0-2.592.8-3.025 2.4-.432 1.2-.216 2.4.433 3.2.648.8 1.512 1.4 3.025 1.8 3.241.6 5.617-1.2 7.994-3.4 1.945-1.6 4.105-3.4 6.914-3.2.865 0 1.513.2 2.161.4 1.729.8 2.593 2.2 2.377 3.8-.216 1.2-.864 2.4-1.945 2.8-1.08.6-2.809.6-3.889-.4-.216-.2-.216-.6 0-.8.216-.2.648-.2.864 0 .648.6 1.513.6 2.377.2.648-.4 1.296-1.2 1.296-2 .216-1.4-.864-2.2-1.728-2.6-.432-.2-1.081-.4-1.513-.4-2.16 0-4.321 1.4-5.834 3-2.376 1.4-4.969 3.6-8.426 3.6z" fill="#D8D0C8"/><path d="M107.36 3.876c.524-.602.421-1.483-.23-1.968-.65-.485-1.602-.39-2.126.212-.524.602-.422 1.484.229 1.969.651.485 1.603.39 2.127-.213zm12.556 5.044c.524-.602.421-1.484-.229-1.969-.651-.485-1.603-.39-2.127.213-.524.602-.421 1.483.23 1.968.65.485 1.602.39 2.126-.212zm77.355-2.72h-74.544c-.432 0-.648-.2-.648-.6 0-.4.216-.6.648-.6h74.544c.433 0 .649.2.649.6 0 .4-.216.6-.649.6zm-120.999 0H1.73c-.433 0-.649-.2-.649-.6 0-.4.216-.6.649-.6h74.543c.433 0 .649.2.649.6 0 .4-.432.6-.649.6z" fill="#D8D0C8"/><path d="M1.729 7.2c.954 0 1.728-.716 1.728-1.6 0-.884-.774-1.6-1.728-1.6C.774 4 0 4.716 0 5.6c0 .884.774 1.6 1.729 1.6zm195.542 0c.955 0 1.729-.716 1.729-1.6 0-.884-.774-1.6-1.729-1.6-.954 0-1.728.716-1.728 1.6 0 .884.774 1.6 1.728 1.6z" fill="#D8D0C8"/></svg>