<svg width="162" height="67" viewBox="0 0 162 67" fill="none" xmlns="http://www.w3.org/2000/svg">
<path fill-rule="evenodd" clip-rule="evenodd" d="M0 0H66.7V47.4C64.4 49.6 50 57.5 50 51C50 49.8 50.7 47.2 52.2 43.4L55.2 35.5L60.6 35.3C61.3 35.3 61.8 34.7 62 33.7C61.8 33.7 61.5 33.6 61 33.6C60.4 33.6 59.6 33.6 58.5 33.7C57.4 33.8 56.5 33.8 56 33.8L55.6 33.7C59.9 22.6 62 16.1 62 14.1C62 12.1 61.3 11.2 59.8 11.2C57.1 11.2 54.2 14.3 51 20.6L44.5 33.4C41 33.1 37 33 32.5 33C24.6 33 18.3 34.9 13.6 38.7C10.7 41.1 9.2 43.7 9.2 46.5C9.2 49.4 10.4 51.6 12.8 53.1C14.8 54.3 17.3 54.8 20.5 54.8C27.5 54.8 33.7 51.6 39 45.2C40 43.9 41.2 42.2 42.4 40.1L45.4 34.8L50.7 35L48 42.6C46.8 46.1 46.1 48.5 46.1 49.9C46.1 52.7 48.3 54.1 52.6 54.1C56.3 54.1 62.5 51.1 66.6 47.9V66.1H0V0ZM59.2 12.5C59.2 12.2 59.1 12 58.9 12C58.7 12 58.4 12.2 58.1 12.5C56.2 13.9 54 17.2 51.4 22.3C50.6 24 48.7 27.8 45.9 33.6L51.2 33.8L59.2 12.5ZM31.2 33.5C26.8 33.5 22.9 34.6 19.4 36.7C15.3 39.2 13.3 42.5 13.3 46.6C13.3 49.1 14.1 51 15.6 52.3C17.1 53.6 19.1 54.3 21.7 54.3C30.4 54.3 37.9 47.7 44 34.6C36.7 33.8 32.4 33.5 31.2 33.5Z" fill="#C31D1F"/>
<path fill-rule="evenodd" clip-rule="evenodd" d="M90.1 49.2L92 49.9C91.7 50.4 91.3 50.7999 90.8 51.2999C88.7 53.4 86.1 54.5 83.1 54.5C80.1 54.5 77.6 53.4 75.4 51.2999C73.3 49.1999 72.2 46.5999 72.2 43.5999C72.2 40.5999 73.3 38.1 75.4 35.9C77.5 33.8 80.1 32.7 83.1 32.7C86.1 32.7 88.7 33.8 90.8 35.9C91.2 36.3 91.6 36.8 92 37.2L90.1 38C89.9 37.8 89.7 37.4999 89.5 37.2999C87.8 35.5999 85.6 34.7 83.2 34.7C80.7 34.7 78.6 35.5999 76.9 37.2999C75.2 38.9999 74.3 41.0999 74.3 43.5999C74.3 46.0999 75.2 48.2 76.9 49.9C78.6 51.6 80.7 52.5 83.2 52.5C85.7 52.5 87.8 51.6 89.5 49.9C89.7 49.7 89.9 49.5 90.1 49.2ZM104.2 36.2999V53.9H102.4V36.2999H94.4V34.5H112.1V36.2999H104.2ZM115.8 34.5H117.6V37.2C117.9 36.8 118.3 36.3 118.7 35.9C120.8 33.8 123.4 32.7 126.4 32.7C129.4 32.7 132 33.8 134.1 35.9C136.2 38 137.3 40.5999 137.3 43.5999C137.3 46.5999 136.3 49.1 134.1 51.2C132 53.3 129.4 54.4 126.4 54.4C123.4 54.4 120.9 53.3 118.7 51.2C118.3 50.8 117.9 50.3 117.6 49.9V61.2H115.8V34.5ZM117.6 41.7999V45.5C117.9 47.2 118.8 48.7 120 50C121.7 51.7 123.9 52.5999 126.3 52.5999C128.8 52.5999 130.9 51.7 132.6 50C134.3 48.3 135.2 46.1 135.2 43.7C135.2 41.2 134.3 39.1 132.6 37.4C130.9 35.7 128.7 34.7999 126.3 34.7999C123.8 34.7999 121.7 35.7 120 37.4C118.8 38.6 118 40.0999 117.6 41.7999ZM161.9 53.9H160.1V50C159.8 50.5 159.4 50.9 159 51.2999C156.9 53.4 154.3 54.5 151.3 54.5C148.3 54.5 145.8 53.4 143.6 51.2999C141.5 49.1999 140.4 46.6 140.4 43.7C140.4 40.7 141.5 38.1 143.6 36C145.7 33.9 148.3 32.7999 151.3 32.7999C154.3 32.7999 156.9 33.9 159 36C159.4 36.4 159.8 36.8999 160.1 37.2999V34.5999H161.9V53.9ZM160.2 45.4V41.9C159.9 40.2 159 38.5999 157.7 37.2999C156 35.5999 153.8 34.7 151.4 34.7C148.9 34.7 146.8 35.5999 145.1 37.2999C143.4 38.9999 142.5 41.1999 142.5 43.5999C142.5 46.0999 143.4 48.2 145.1 49.9C146.8 51.6 149 52.5 151.4 52.5C153.9 52.5 156 51.6 157.7 49.9C159 48.6 159.8 47.1 160.2 45.4Z" fill="#C31D1F"/>
<path fill-rule="evenodd" clip-rule="evenodd" d="M78.2 24.4L77.7 24.7001C77.3 24.1001 76.7 23.8 75.9 23.8C75.3 23.8 74.8 24 74.4 24.4C74 24.8 73.8 25.3 73.8 25.8C73.8 26.2 73.9 26.5 74.1 26.8C74.3 27.1 74.5 27.4 74.9 27.5C75.2 27.7 75.6 27.8 76 27.8C76.7 27.8 77.3 27.5 77.8 26.9L78.3 27.2001C78.1 27.6001 77.7 27.8 77.3 28C76.9 28.2 76.4 28.3 75.9 28.3C75.1 28.3 74.5 28.0001 73.9 27.6C73.4 27.1 73.1 26.5 73.1 25.8C73.1 25.3 73.2 24.9 73.5 24.5C73.7 24.1 74.1 23.8 74.5 23.5C74.9 23.3 75.4 23.2001 75.9 23.2001C76.2 23.2001 76.6 23.3 76.9 23.4C77.2 23.5 77.5 23.6 77.7 23.8C77.9 23.9 78 24.1 78.2 24.4ZM83.6 26.7001L84.1 27C83.9 27.3 83.7 27.6 83.5 27.8C83.3 28 83 28.2 82.7 28.3C82.4 28.4 82.1 28.5 81.7 28.5C80.9 28.5 80.2 28.2001 79.8 27.7001C79.3 27.2001 79.1 26.6 79.1 25.9C79.1 25.3 79.3 24.7001 79.7 24.2001C80.2 23.6001 80.9 23.3 81.7 23.3C82.6 23.3 83.2 23.6 83.7 24.3C84.1 24.8 84.2 25.3 84.3 26H79.8C79.8 26.6 80 27.1 80.4 27.4C80.8 27.8 81.2 28 81.7 28C82 28 82.2 28 82.4 27.9C82.6 27.8 82.8 27.7 83 27.6C83.2 27.2 83.4 27.0001 83.6 26.7001ZM83.6 25.3C83.5 25 83.4 24.7 83.2 24.5C83 24.3 82.8 24.1 82.5 24C82.2 23.9 81.9 23.8 81.6 23.8C81.1 23.8 80.7 24 80.3 24.3C80 24.5 79.8 24.9 79.7 25.3H83.6ZM85 23.3H88.3V23.9H87V28.3H86.4V23.9H85V23.3ZM89.7 25.3H90.3C90.8 25.3 91.2 25.3 91.4 25.4C91.7 25.5 91.9 25.6 92.1 25.9C92.3 26.2 92.4 26.5 92.4 26.8C92.4 27.2 92.3 27.6 92 27.9C91.7 28.2 91.3 28.3 90.7 28.3H89V23.3H89.6V25.3H89.7ZM89.8 25.9V27.8H90.5C91.4 27.8 91.8 27.5 91.8 26.9C91.8 26.7 91.8 26.6 91.7 26.4C91.6 26.2 91.5 26.1 91.3 26C91.1 25.9 90.8 25.9 90.4 25.9H89.8ZM101 24.4L100.5 24.7001C100.1 24.1001 99.5 23.8 98.7 23.8C98.1 23.8 97.6 24 97.2 24.4C96.8 24.8 96.6 25.3 96.6 25.8C96.6 26.2 96.7 26.5 96.9 26.8C97.1 27.1 97.3 27.4 97.7 27.5C98 27.7 98.4 27.8 98.8 27.8C99.5 27.8 100.1 27.5 100.6 26.9L101.1 27.2001C100.9 27.6001 100.5 27.8 100.1 28C99.7 28.2 99.2 28.3 98.7 28.3C97.9 28.3 97.3 28.0001 96.7 27.6C96.2 27.1 95.9 26.5 95.9 25.8C95.9 25.3 96 24.9 96.3 24.5C96.5 24.1 96.9 23.8 97.3 23.5C97.7 23.3 98.2 23.2001 98.7 23.2001C99 23.2001 99.4 23.3 99.7 23.4C100 23.5 100.3 23.6 100.5 23.8C100.6 23.9 100.8 24.1 101 24.4ZM101.7 23.3H105V23.9H103.7V28.3H103V23.9H101.7V23.3ZM108.2 23.2001C109 23.2001 109.6 23.5 110.1 24C110.6 24.5 110.8 25.1 110.8 25.8C110.8 26.5 110.6 27.1 110.1 27.6C109.6 28.1 109 28.4 108.2 28.4C107.4 28.4 106.8 28.1 106.3 27.6C105.8 27.1 105.6 26.5 105.6 25.8C105.6 25.1 105.8 24.5 106.3 24C106.8 23.5 107.4 23.2001 108.2 23.2001ZM108.2 23.8C107.7 23.8 107.2 24 106.8 24.4C106.4 24.8 106.2 25.3 106.2 25.8C106.2 26.2 106.3 26.5 106.5 26.8C106.7 27.1 106.9 27.3 107.2 27.5C107.5 27.7 107.8 27.8 108.2 27.8C108.6 27.8 108.9 27.7 109.2 27.5C109.5 27.3 109.7 27.1 109.9 26.8C110.1 26.5 110.2 26.2 110.2 25.8C110.2 25.2 110 24.8 109.6 24.4C109.2 24 108.7 23.8 108.2 23.8ZM117.4 23.3H117.6L119.3 28.3H118.6L117.4 24.6L115.5 28.3H115.4L113.5 24.6L112.3 28.3H111.6L113.3 23.3H113.5L115.5 27.2001L117.4 23.3ZM125.2 23.3V28.3H124.6V27.4C124.3 27.7 124 28.0001 123.7 28.1C123.4 28.3 123 28.3 122.6 28.3C121.9 28.3 121.3 28 120.8 27.5C120.3 27 120.1 26.4001 120.1 25.6C120.1 24.9 120.4 24.3 120.9 23.8C121.4 23.3 122 23 122.7 23C123.1 23 123.5 23.1 123.8 23.3C124.1 23.5 124.4 23.7 124.7 24.1V23.2001H125.2V23.3ZM122.6 23.8C122.2 23.8 121.9 23.9 121.6 24.1C121.3 24.3001 121.1 24.5 120.9 24.8C120.7 25.1 120.6 25.5 120.6 25.8C120.6 26.1 120.7 26.5 120.9 26.8C121.1 27.1 121.3 27.4 121.6 27.5C121.9 27.7 122.2 27.8 122.6 27.8C122.9 27.8 123.3 27.7 123.6 27.5C123.9 27.3 124.2 27.1 124.3 26.8C124.5 26.5 124.6 26.2 124.6 25.8C124.6 25.2 124.4 24.7 124 24.4C123.6 24 123.2 23.8 122.6 23.8ZM126.1 23.3H129.4V23.9H128V28.3H127.4V23.9H126.1V23.3ZM132.6 23.2001C133.4 23.2001 134 23.5 134.5 24C135 24.5 135.2 25.1 135.2 25.8C135.2 26.5 135 27.1 134.5 27.6C134 28.1 133.4 28.4 132.6 28.4C131.8 28.4 131.2 28.1 130.7 27.6C130.2 27.1 130 26.5 130 25.8C130 25.1 130.2 24.5 130.7 24C131.2 23.5 131.8 23.2001 132.6 23.2001ZM132.6 23.8C132.1 23.8 131.6 24 131.2 24.4C130.8 24.8 130.6 25.3 130.6 25.8C130.6 26.2 130.7 26.5 130.9 26.8C131.1 27.1 131.3 27.3 131.6 27.5C131.9 27.7 132.2 27.8 132.6 27.8C133 27.8 133.3 27.7 133.6 27.5C133.9 27.3 134.1 27.1 134.3 26.8C134.5 26.5 134.6 26.2 134.6 25.8C134.6 25.2 134.4 24.8 134 24.4C133.6 24 133.1 23.8 132.6 23.8ZM140.6 28.3H139.9L138.2 24.7001L136.5 28.3H135.8L138.1 23.3H138.2L140.6 28.3ZM143.9 23.2001C144.7 23.2001 145.3 23.5 145.8 24C146.3 24.5 146.5 25.1 146.5 25.8C146.5 26.5 146.3 27.1 145.8 27.6C145.3 28.1 144.7 28.4 143.9 28.4C143.1 28.4 142.5 28.1 142 27.6C141.5 27.1 141.3 26.5 141.3 25.8C141.3 25.1 141.5 24.5 142 24C142.5 23.5 143.2 23.2001 143.9 23.2001ZM143.9 23.8C143.4 23.8 142.9 24 142.5 24.4C142.1 24.8 141.9 25.3 141.9 25.8C141.9 26.2 142 26.5 142.2 26.8C142.4 27.1 142.6 27.3 142.9 27.5C143.2 27.7 143.5 27.8 143.9 27.8C144.3 27.8 144.6 27.7 144.9 27.5C145.2 27.3 145.4 27.1 145.6 26.8C145.8 26.5 145.9 26.2 145.9 25.8C145.9 25.2 145.7 24.8 145.3 24.4C144.9 24 144.5 23.8 143.9 23.8ZM148.4 23.9V28.3H147.8V23.3H150.3V23.9H148.4ZM151.7 23.3V27L155.4 23.3H155.5V28.3H154.9V24.6L151.3 28.3H151.2V23.3H151.7ZM157.5 23.3V27L161.2 23.3H161.3V28.3H160.7V24.6L157.1 28.3H157V23.3H157.5ZM157.4 21.3H158C158.1 21.5 158.2 21.6001 158.4 21.7001C158.6 21.8001 158.8 21.8 159 21.8C159.2 21.8 159.4 21.8001 159.6 21.7001C159.8 21.6001 159.9 21.5 160 21.3H160.6C160.5 21.6 160.4 21.8 160.1 22C159.8 22.2 159.5 22.3 159 22.3C158.6 22.3 158.2 22.2 157.9 22C157.7 21.8 157.5 21.6 157.4 21.3Z" fill="#666666"/>
</svg>
