<svg width="26" height="23" viewBox="0 0 26 23" fill="none" xmlns="http://www.w3.org/2000/svg">
<path d="M18.502 20.6177C21.5397 18.7335 23.435 15.4156 23.435 11.7686C23.435 8.61525 22.0212 5.70452 19.6663 3.75537L13.998 16.897H12.002L6.33367 3.75537C3.97879 5.70452 2.56498 8.61525 2.56498 11.7686C2.56498 15.4156 4.46027 18.7335 7.49798 20.6177L6.47811 23C2.5037 20.6913 0 16.4465 0 11.7686C0 7.19887 2.45556 2.40829 7.50673 0L13.0175 12.7258L18.4933 0C23.5444 2.40829 26 7.19887 26 11.7686C26 16.4465 23.4963 20.6957 19.5219 23L18.502 20.6177Z" fill="white"/>
</svg>
